<svg width="96" height="84" viewBox="0 0 96 84" fill="none" xmlns="http://www.w3.org/2000/svg">
<path d="M50.9961 59C50.9961 61.1667 51.4336 63.2188 52.3086 65.1563C53.1836 67.0938 54.4336 68.7917 56.0586 70.25C56.0169 70.0417 55.9961 69.8542 55.9961 69.6875V69.125C55.9961 67.7917 56.2461 66.5417 56.7461 65.375C57.2461 64.2083 57.9753 63.1458 58.9336 62.1875L65.9961 55.25L73.0586 62.1875C74.0169 63.1458 74.7461 64.2083 75.2461 65.375C75.7461 66.5417 75.9961 67.7917 75.9961 69.125V69.6875C75.9961 69.8542 75.9753 70.0417 75.9336 70.25C77.5586 68.7917 78.8086 67.0938 79.6836 65.1563C80.5586 63.2188 80.9961 61.1667 80.9961 59C80.9961 56.9167 80.6107 54.9479 79.8398 53.0938C79.069 51.2396 77.9544 49.5833 76.4961 48.125C75.6628 48.6667 74.7878 49.0729 73.8711 49.3438C72.9544 49.6146 72.0169 49.75 71.0586 49.75C68.4753 49.75 66.2357 48.8958 64.3398 47.1875C62.444 45.4792 61.3503 43.375 61.0586 40.875C59.4336 42.25 57.9961 43.6771 56.7461 45.1563C55.4961 46.6354 54.444 48.1354 53.5898 49.6563C52.7357 51.1771 52.0898 52.7292 51.6523 54.3125C51.2148 55.8958 50.9961 57.4583 50.9961 59ZM65.9961 62.25L62.4336 65.75C61.9753 66.2083 61.6211 66.7292 61.3711 67.3125C61.1211 67.8958 60.9961 68.5 60.9961 69.125C60.9961 70.4583 61.4857 71.6042 62.4648 72.5625C63.444 73.5208 64.6211 74 65.9961 74C67.3711 74 68.5482 73.5208 69.5273 72.5625C70.5065 71.6042 70.9961 70.4583 70.9961 69.125C70.9961 68.4583 70.8711 67.8438 70.6211 67.2813C70.3711 66.7188 70.0169 66.2083 69.5586 65.75L65.9961 62.25ZM65.9961 31.5V39.75C65.9961 41.1667 66.4857 42.3542 67.4648 43.3125C68.444 44.2708 69.6419 44.75 71.0586 44.75C71.8086 44.75 72.5065 44.5938 73.1523 44.2813C73.7982 43.9688 74.3711 43.5 74.8711 42.875L75.9961 41.5C79.0794 43.25 81.5169 45.6875 83.3086 48.8125C85.1003 51.9375 85.9961 55.3333 85.9961 59C85.9961 64.5833 84.0586 69.3125 80.1836 73.1875C76.3086 77.0625 71.5794 79 65.9961 79C60.4128 79 55.6836 77.0625 51.8086 73.1875C47.9336 69.3125 45.9961 64.5833 45.9961 59C45.9961 53.625 47.7982 48.5208 51.4023 43.6875C55.0065 38.8542 59.8711 34.7917 65.9961 31.5Z" fill="#E8EAED"/>
<path d="M19.9961 54.998L22.4961 37.498H9.99609L32.4961 4.99805H37.4961L34.9961 24.998H49.9961L24.9961 54.998H19.9961Z" fill="#E8EAED"/>
</svg>
