<svg width="48" height="48" viewBox="0 0 48 48" fill="none" xmlns="http://www.w3.org/2000/svg">
<path d="M10.8 39.2002C9.3 37.7002 8.125 35.9669 7.275 34.0002C6.425 32.0336 6 30.0002 6 27.9002C6 25.8002 6.4 23.7252 7.2 21.6752C8 19.6252 9.3 17.7002 11.1 15.9002C12.2667 14.7336 13.7083 13.7336 15.425 12.9002C17.1417 12.0669 19.175 11.4086 21.525 10.9252C23.875 10.4419 26.5583 10.1502 29.575 10.0502C32.5917 9.95024 35.9667 10.0669 39.7 10.4002C39.9667 13.9336 40.05 17.1836 39.95 20.1502C39.85 23.1169 39.575 25.7919 39.125 28.1752C38.675 30.5586 38.0417 32.6419 37.225 34.4252C36.4083 36.2086 35.4 37.7002 34.2 38.9002C32.4333 40.6669 30.5583 41.9586 28.575 42.7752C26.5917 43.5919 24.5667 44.0002 22.5 44.0002C20.3333 44.0002 18.2167 43.5752 16.15 42.7252C14.0833 41.8752 12.3 40.7002 10.8 39.2002ZM16.4 38.4002C17.3667 38.9669 18.3583 39.3752 19.375 39.6252C20.3917 39.8752 21.4333 40.0002 22.5 40.0002C24.0333 40.0002 25.55 39.6919 27.05 39.0752C28.55 38.4586 29.9833 37.4669 31.35 36.1002C31.95 35.5002 32.5583 34.6586 33.175 33.5752C33.7917 32.4919 34.325 31.0752 34.775 29.3252C35.225 27.5752 35.5667 25.4586 35.8 22.9752C36.0333 20.4919 36.0667 17.5336 35.9 14.1002C34.2667 14.0336 32.425 14.0086 30.375 14.0252C28.325 14.0419 26.2833 14.2002 24.25 14.5002C22.2167 14.8002 20.2833 15.2836 18.45 15.9502C16.6167 16.6169 15.1167 17.5336 13.95 18.7002C12.45 20.2002 11.4167 21.6836 10.85 23.1502C10.2833 24.6169 10 26.0336 10 27.4002C10 29.3669 10.375 31.0919 11.125 32.5752C11.875 34.0586 12.5333 35.1002 13.1 35.7002C14.5 33.0336 16.35 30.4752 18.65 28.0252C20.95 25.5752 23.6333 23.5669 26.7 22.0002C24.3 24.1002 22.2083 26.4752 20.425 29.1252C18.6417 31.7752 17.3 34.8669 16.4 38.4002Z" fill="#E8EAED"/>
</svg>
