<svg width="72" height="72" viewBox="0 0 72 72" fill="none" xmlns="http://www.w3.org/2000/svg">
<path d="M12 63C11.15 63 10.4375 62.7125 9.8625 62.1375C9.2875 61.5625 9 60.85 9 60C9 59.15 9.2875 58.4375 9.8625 57.8625C10.4375 57.2875 11.15 57 12 57H15V39H12C11.15 39 10.4375 38.7125 9.8625 38.1375C9.2875 37.5625 9 36.85 9 36C9 35.15 9.2875 34.4375 9.8625 33.8625C10.4375 33.2875 11.15 33 12 33H15V15H12C11.15 15 10.4375 14.7125 9.8625 14.1375C9.2875 13.5625 9 12.85 9 12C9 11.15 9.2875 10.4375 9.8625 9.8625C10.4375 9.2875 11.15 9 12 9H60C60.85 9 61.5625 9.2875 62.1375 9.8625C62.7125 10.4375 63 11.15 63 12C63 12.85 62.7125 13.5625 62.1375 14.1375C61.5625 14.7125 60.85 15 60 15H57V33H60C60.85 33 61.5625 33.2875 62.1375 33.8625C62.7125 34.4375 63 35.15 63 36C63 36.85 62.7125 37.5625 62.1375 38.1375C61.5625 38.7125 60.85 39 60 39H57V57H60C60.85 57 61.5625 57.2875 62.1375 57.8625C62.7125 58.4375 63 59.15 63 60C63 60.85 62.7125 61.5625 62.1375 62.1375C61.5625 62.7125 60.85 63 60 63H12ZM21 57H51V39C50.15 39 49.4375 38.7125 48.8625 38.1375C48.2875 37.5625 48 36.85 48 36C48 35.15 48.2875 34.4375 48.8625 33.8625C49.4375 33.2875 50.15 33 51 33V15H21V33C21.85 33 22.5625 33.2875 23.1375 33.8625C23.7125 34.4375 24 35.15 24 36C24 36.85 23.7125 37.5625 23.1375 38.1375C22.5625 38.7125 21.85 39 21 39V57ZM36 48C38.5 48 40.625 47.1375 42.375 45.4125C44.125 43.6875 45 41.6 45 39.15C45 37.2 44.4375 35.525 43.3125 34.125C42.1875 32.725 39.75 29.85 36 25.5C32.25 29.8 29.8125 32.6625 28.6875 34.0875C27.5625 35.5125 27 37.2 27 39.15C27 41.6 27.875 43.6875 29.625 45.4125C31.375 47.1375 33.5 48 36 48Z" fill="#E8EAED"/>
</svg>
