<svg width="72" height="57" viewBox="0 0 72 57" fill="none" xmlns="http://www.w3.org/2000/svg">
<g clip-path="url(#clip0_2170_5173)">
<path d="M29.6419 49.3832C29.6419 49.4753 29.6419 49.5444 29.6419 49.6366V49.6826C29.6419 49.7748 29.6419 49.8669 29.6419 49.936C29.6419 49.9821 29.6419 50.0051 29.6419 50.0512C29.6419 50.1433 29.6419 50.2124 29.6189 50.3045C29.6189 50.3275 29.6189 50.3506 29.6189 50.3506C29.6189 50.4427 29.5959 50.5118 29.5959 50.6039C29.5959 50.65 29.5728 50.6961 29.5728 50.7421C29.5498 50.9034 29.5037 51.0646 29.4807 51.2258C29.4577 51.2949 29.4577 51.341 29.4346 51.4101C29.3886 51.5483 29.3655 51.6865 29.2964 51.8247C29.2734 51.8938 29.2504 51.9629 29.2273 52.032C29.1583 52.2162 29.0892 52.3774 28.997 52.5387C28.997 52.5617 28.974 52.5617 28.974 52.5847C28.9049 52.746 28.8128 52.8842 28.7437 53.0224C28.7437 53.0454 28.7206 53.0454 28.7206 53.0684C28.6285 53.2066 28.5364 53.3679 28.4442 53.506C27.2465 55.1644 25.3118 56.2239 23.1237 56.2239C20.9356 56.2239 19.0009 55.1414 17.8032 53.506C17.8032 53.506 17.8032 53.506 17.8032 53.483C17.711 53.3448 17.6189 53.2066 17.5268 53.0454C17.5268 53.0224 17.5037 53.0224 17.5037 52.9993C17.4116 52.8611 17.3425 52.6999 17.2734 52.5617C17.2734 52.5387 17.2504 52.5387 17.2504 52.5156C17.1813 52.3544 17.0892 52.1932 17.0201 52.0089C16.997 51.9398 16.974 51.8707 16.951 51.8016C16.9049 51.6634 16.8588 51.5252 16.8128 51.387C16.7897 51.3179 16.7897 51.2719 16.7667 51.2028C16.7206 51.0416 16.6976 50.8803 16.6746 50.7191C16.6746 50.673 16.6515 50.627 16.6515 50.5809C16.6285 50.4888 16.6285 50.4197 16.6285 50.3275C16.6285 50.3045 16.6285 50.3045 16.6285 50.2815C16.6285 50.1893 16.6055 50.1202 16.6055 50.0281C16.6055 49.9821 16.6055 49.959 16.6055 49.913C16.6055 49.8208 16.6055 49.7517 16.6055 49.6596V49.6135C16.6055 49.5214 16.6055 49.4293 16.6055 49.3602C16.6055 49.3141 16.6055 49.2911 16.6055 49.245C16.6055 49.1759 16.6055 49.0838 16.6285 49.0147C16.6285 48.9917 16.6285 48.9456 16.6285 48.9226C16.6285 48.8304 16.6515 48.7613 16.6515 48.6922C16.6515 48.6462 16.6746 48.6001 16.6746 48.554C16.6976 48.3928 16.7437 48.2316 16.7667 48.0934C16.7897 48.0243 16.7897 47.9782 16.8128 47.9091C16.8358 47.84 16.8588 47.7709 16.8819 47.7018C16.9049 47.6327 16.9279 47.5636 16.951 47.4945C16.974 47.4254 16.997 47.3563 17.0201 47.2872C17.0892 47.103 17.1813 46.9187 17.2504 46.7575C17.3195 46.5963 17.4116 46.4581 17.5037 46.2968C17.5728 46.2047 17.6189 46.0895 17.688 45.9974C17.7341 45.9283 17.7801 45.8822 17.8032 45.8131C17.8723 45.698 17.9644 45.5828 18.0565 45.4907C18.0796 45.4677 18.1026 45.4216 18.1487 45.3755C18.1717 45.3525 18.1717 45.3295 18.1947 45.3295C18.2178 45.3064 18.2178 45.2834 18.2408 45.2834C18.2638 45.2373 18.3099 45.2143 18.3329 45.1682C18.3329 45.1452 18.3559 45.1452 18.3559 45.1222C18.379 45.0761 18.425 45.0531 18.4481 45.007C18.5863 44.8458 18.7475 44.7076 18.9087 44.5924C20.0373 43.6481 21.5114 43.0723 23.1007 43.0723C24.8051 43.0723 26.3713 43.7402 27.546 44.8227C27.6611 44.9379 27.7763 45.0531 27.8915 45.1682C27.9145 45.1913 27.9375 45.2373 27.9606 45.2604C28.0066 45.3064 28.0297 45.3295 28.0527 45.3755C28.0988 45.4446 28.1448 45.4907 28.1909 45.5598L28.2139 45.5828C28.2139 45.6059 28.2369 45.6059 28.2369 45.6289C28.26 45.675 28.306 45.698 28.3291 45.7441C28.3521 45.7671 28.3521 45.7901 28.3751 45.8131C28.4212 45.8592 28.4442 45.9053 28.4903 45.9744C28.5133 46.0204 28.5364 46.0435 28.5594 46.0895C28.6055 46.1586 28.6285 46.2047 28.6746 46.2738C28.6746 46.2738 28.6746 46.2968 28.6976 46.2968C28.7897 46.435 28.8588 46.5963 28.951 46.7575C29.0431 46.9417 29.1122 47.103 29.1813 47.2872C29.2043 47.3563 29.2273 47.4254 29.2504 47.4945C29.2734 47.5636 29.2964 47.6327 29.3195 47.7018C29.3425 47.7709 29.3655 47.84 29.3886 47.9091C29.4116 47.9782 29.4116 48.0243 29.4346 48.0934C29.4807 48.2546 29.5037 48.3928 29.5268 48.554C29.5268 48.6001 29.5498 48.6462 29.5498 48.6922C29.5498 48.7613 29.5728 48.8535 29.5728 48.9226C29.5728 48.9456 29.5728 48.9917 29.5728 49.0147C29.5728 49.0838 29.5959 49.1759 29.5959 49.245C29.6419 49.3141 29.6419 49.3602 29.6419 49.3832Z" fill="white"/>
<path d="M5.39062 30.2402H66.5883L60.8071 48.3439C60.5538 49.127 59.8167 49.6798 58.9876 49.6798H58.9185C58.9185 44.1519 54.4271 39.6606 48.8993 39.6606C43.3714 39.6606 38.8801 44.1519 38.8801 49.6798H33.1219C33.1219 44.1519 28.6305 39.6606 23.1027 39.6606C17.5749 39.6606 13.0835 44.1519 13.0835 49.6798H13.0144C12.1852 49.6798 11.4482 49.15 11.1948 48.3439L5.39062 30.2402Z" fill="white"/>
<path d="M55.4575 49.384C55.4575 49.4761 55.4575 49.5452 55.4575 49.6374V49.6834C55.4575 49.7756 55.4575 49.8677 55.4575 49.9368C55.4575 49.9829 55.4575 50.0059 55.4575 50.052C55.4575 50.1441 55.4575 50.2132 55.4345 50.3053C55.4345 50.3284 55.4345 50.3514 55.4345 50.3514C55.4345 50.4435 55.4115 50.5126 55.4115 50.6047C55.4115 50.6508 55.3884 50.6969 55.3884 50.7429C55.3654 50.9042 55.3193 51.0654 55.2963 51.2266C55.2733 51.2957 55.2733 51.3418 55.2502 51.4109C55.2042 51.5491 55.1811 51.6873 55.112 51.8255C55.089 51.8946 55.066 51.9637 55.0429 52.0328C54.9738 52.217 54.9048 52.3783 54.8126 52.5395C54.8126 52.5395 54.8126 52.5625 54.7896 52.5625C54.7205 52.7237 54.6284 52.885 54.5362 53.0232C54.5362 53.0232 54.5362 53.0462 54.5132 53.0462C53.3616 54.9579 51.2886 56.2247 48.8932 56.2247C46.2675 56.2247 43.9873 54.6585 42.9508 52.4243C42.8817 52.2861 42.8357 52.171 42.7896 52.0328C42.7666 51.9637 42.7435 51.8946 42.7205 51.8255C42.6744 51.6873 42.6284 51.5491 42.5823 51.4109C42.5593 51.3418 42.5593 51.2957 42.5362 51.2266C42.4902 51.0654 42.4671 50.9042 42.4441 50.7429C42.4441 50.6969 42.4211 50.6508 42.4211 50.6047C42.398 50.5126 42.398 50.4435 42.398 50.3514C42.398 50.3284 42.398 50.3284 42.398 50.3053C42.398 50.2132 42.375 50.1441 42.375 50.052C42.375 50.0059 42.375 49.9829 42.375 49.9368C42.375 49.8447 42.375 49.7756 42.375 49.6834V49.6374C42.375 49.5452 42.375 49.4531 42.375 49.384C42.375 49.3379 42.375 49.3149 42.375 49.2689C42.375 49.1998 42.375 49.1076 42.398 49.0385C42.398 49.0155 42.398 48.9694 42.398 48.9464C42.398 48.8543 42.4211 48.7852 42.4211 48.7161C42.4211 48.67 42.4441 48.6239 42.4441 48.5779C42.4671 48.4166 42.5132 48.2554 42.5362 48.1172C42.5593 48.0481 42.5593 48.0021 42.5823 47.933C42.6053 47.8639 42.6284 47.7948 42.6514 47.7257C42.6744 47.6566 42.6975 47.5875 42.7205 47.5184C42.7435 47.4493 42.7666 47.3802 42.7896 47.3111C42.8357 47.1729 42.9048 47.0347 42.9508 46.9195C43.9873 44.6623 46.2675 43.1191 48.8932 43.1191C51.542 43.1191 53.7992 44.6854 54.8357 46.9195C54.9048 47.0577 54.9508 47.1729 54.9969 47.3111C55.0199 47.3802 55.0429 47.4493 55.066 47.5184C55.089 47.5875 55.112 47.6566 55.1351 47.7257C55.1581 47.7948 55.1811 47.8639 55.2042 47.933C55.2272 48.0021 55.2502 48.0481 55.2502 48.1172C55.2963 48.2784 55.3193 48.4166 55.3424 48.5779C55.3424 48.6239 55.3654 48.67 55.3654 48.7161C55.3654 48.7852 55.3884 48.8773 55.3884 48.9464C55.3884 48.9694 55.3884 49.0155 55.3884 49.0385C55.3884 49.1076 55.4115 49.1998 55.4115 49.2689C55.4345 49.3149 55.4575 49.361 55.4575 49.384Z" fill="white"/>
<path d="M68.2701 16.0998H4.74609C5.41404 14.4415 6.77296 13.1516 8.47738 12.5988C9.32959 10.8253 10.9879 9.53551 12.9918 9.19002C13.3373 6.5643 15.3411 4.4453 17.9438 3.96161C19.0263 2.2572 20.938 1.15163 23.1031 1.15163C24.5081 1.15163 25.7749 1.61228 26.8114 2.39539C27.94 0.944338 29.6904 0 31.6712 0C33.9515 0 35.9553 1.24376 37.0148 3.1094C38.0743 1.26679 40.0781 0 42.3584 0C45.7442 0 48.5081 2.74088 48.5081 6.14971V6.17274C48.6463 6.17274 48.7845 6.14971 48.9227 6.14971C50.0513 6.14971 51.0877 6.44914 51.986 6.97889C52.8843 6.44914 53.9438 6.14971 55.0494 6.14971C57.3757 6.14971 59.4025 7.43954 60.439 9.37428C60.9918 9.21305 61.5906 9.12092 62.1895 9.12092C65.5753 9.12092 68.3392 11.8618 68.3392 15.2706C68.3392 15.524 68.3161 15.8234 68.2701 16.0998Z" fill="white"/>
<path d="M72 21.4644V21.7639C72 22.8234 71.1478 23.6756 70.0883 23.6756C69.2591 23.6756 68.5221 24.2053 68.2687 25.0115L67.6929 26.808H4.3071L3.73129 25.0115C3.47793 24.2284 2.74088 23.6756 1.91171 23.6756C0.852207 23.6756 0 22.8234 0 21.7639V21.4644C0 20.4049 0.852207 19.5527 1.91171 19.5527H70.0883C71.1478 19.5527 72 20.428 72 21.4644Z" fill="white"/>
</g>
<defs>
<clipPath id="clip0_2170_5173">
<rect width="72" height="56.2226" fill="white"/>
</clipPath>
</defs>
</svg>
