<svg width="90" height="82" viewBox="0 0 90 82" fill="none" xmlns="http://www.w3.org/2000/svg">
<path d="M43.2734 70.0565C41.3984 68.1815 39.9297 66.0148 38.8672 63.5565C37.8047 61.0981 37.2734 58.5565 37.2734 55.9315C37.2734 53.3065 37.7734 50.7127 38.7734 48.1502C39.7734 45.5877 41.3984 43.1815 43.6484 40.9315C45.1068 39.4731 46.9089 38.2231 49.0547 37.1815C51.2005 36.1398 53.7422 35.3169 56.6797 34.7127C59.6172 34.1085 62.9714 33.744 66.7422 33.619C70.513 33.494 74.7318 33.6398 79.3984 34.0565C79.7318 38.4731 79.8359 42.5356 79.7109 46.244C79.5859 49.9523 79.2422 53.296 78.6797 56.2752C78.1172 59.2544 77.3255 61.8585 76.3047 64.0877C75.2839 66.3169 74.0234 68.1815 72.5234 69.6815C70.3151 71.8898 67.9714 73.5044 65.4922 74.5252C63.013 75.546 60.4818 76.0565 57.8984 76.0565C55.1901 76.0565 52.5443 75.5252 49.9609 74.4627C47.3776 73.4002 45.1484 71.9315 43.2734 70.0565ZM50.2734 69.0565C51.4818 69.7648 52.7214 70.2752 53.9922 70.5877C55.263 70.9002 56.5651 71.0565 57.8984 71.0565C59.8151 71.0565 61.7109 70.671 63.5859 69.9002C65.4609 69.1294 67.2526 67.8898 68.9609 66.1815C69.7109 65.4315 70.4714 64.3794 71.2422 63.0252C72.013 61.671 72.6797 59.9002 73.2422 57.7127C73.8047 55.5252 74.2318 52.8794 74.5234 49.7752C74.8151 46.671 74.8568 42.9731 74.6484 38.6815C72.6068 38.5981 70.3047 38.5669 67.7422 38.5877C65.1797 38.6085 62.6276 38.8065 60.0859 39.1815C57.5443 39.5565 55.1276 40.1606 52.8359 40.994C50.5443 41.8273 48.6693 42.9731 47.2109 44.4315C45.3359 46.3065 44.0443 48.1606 43.3359 49.994C42.6276 51.8273 42.2734 53.5981 42.2734 55.3065C42.2734 57.7648 42.7422 59.921 43.6797 61.7752C44.6172 63.6294 45.4401 64.9315 46.1484 65.6815C47.8984 62.3481 50.2109 59.1502 53.0859 56.0877C55.9609 53.0252 59.3151 50.5148 63.1484 48.5565C60.1484 51.1815 57.5339 54.1502 55.3047 57.4627C53.0755 60.7752 51.3984 64.6398 50.2734 69.0565Z" fill="#E8EAED"/>
<path d="M28.4734 13.838L34.6539 8.95912L39.0132 19.9678L38.6307 29.007L22.0451 30.0019L3.48199 28.8614L2.74099 16.5086L6.87655 8.37133L21.3498 2.99505L28.0692 7.10007L28.4734 13.838ZM28.4734 13.838L18.4051 15.5689" stroke="#E8EAED" stroke-width="4.5" stroke-linejoin="round"/>
</svg>
